<mxfile host="app.diagrams.net" modified="2022-02-02T17:02:52.551Z" agent="5.0 (Windows NT 10.0; Win64; x64) AppleWebKit/537.36 (KHTML, like Gecko) Chrome/97.0.4692.99 Safari/537.36" etag="btWj_u1ZUXe5LDqH7Gjm" version="16.5.2" type="github">
  <diagram id="xZidNAdq49fcDvhdnEJo" name="Page-1">
    <mxGraphModel dx="680" dy="372" grid="1" gridSize="10" guides="1" tooltips="1" connect="1" arrows="1" fold="1" page="1" pageScale="1" pageWidth="827" pageHeight="1169" math="0" shadow="0">
      <root>
        <mxCell id="0" />
        <mxCell id="1" parent="0" />
        <mxCell id="eA5G1mRxvGn_3Z1sqUp9-4" style="edgeStyle=orthogonalEdgeStyle;rounded=0;orthogonalLoop=1;jettySize=auto;html=1;exitX=0.5;exitY=1;exitDx=0;exitDy=0;" edge="1" parent="1" source="eA5G1mRxvGn_3Z1sqUp9-2" target="eA5G1mRxvGn_3Z1sqUp9-3">
          <mxGeometry relative="1" as="geometry" />
        </mxCell>
        <mxCell id="eA5G1mRxvGn_3Z1sqUp9-2" value="Start" style="rounded=1;whiteSpace=wrap;html=1;" vertex="1" parent="1">
          <mxGeometry x="380" y="80" width="120" height="40" as="geometry" />
        </mxCell>
        <mxCell id="eA5G1mRxvGn_3Z1sqUp9-7" style="edgeStyle=orthogonalEdgeStyle;rounded=0;orthogonalLoop=1;jettySize=auto;html=1;exitX=0.5;exitY=1;exitDx=0;exitDy=0;entryX=0.5;entryY=0;entryDx=0;entryDy=0;" edge="1" parent="1" source="eA5G1mRxvGn_3Z1sqUp9-3">
          <mxGeometry relative="1" as="geometry">
            <mxPoint x="440" y="240" as="targetPoint" />
          </mxGeometry>
        </mxCell>
        <mxCell id="eA5G1mRxvGn_3Z1sqUp9-3" value="Create Ball" style="rounded=0;whiteSpace=wrap;html=1;" vertex="1" parent="1">
          <mxGeometry x="380" y="160" width="120" height="40" as="geometry" />
        </mxCell>
        <mxCell id="eA5G1mRxvGn_3Z1sqUp9-12" style="edgeStyle=orthogonalEdgeStyle;rounded=0;orthogonalLoop=1;jettySize=auto;html=1;exitX=0.5;exitY=1;exitDx=0;exitDy=0;entryX=0;entryY=0.5;entryDx=0;entryDy=0;" edge="1" parent="1" source="eA5G1mRxvGn_3Z1sqUp9-9" target="eA5G1mRxvGn_3Z1sqUp9-10">
          <mxGeometry relative="1" as="geometry" />
        </mxCell>
        <mxCell id="eA5G1mRxvGn_3Z1sqUp9-14" style="edgeStyle=orthogonalEdgeStyle;rounded=0;orthogonalLoop=1;jettySize=auto;html=1;entryX=0;entryY=0.5;entryDx=0;entryDy=0;exitX=0.5;exitY=1;exitDx=0;exitDy=0;" edge="1" parent="1" source="eA5G1mRxvGn_3Z1sqUp9-9" target="eA5G1mRxvGn_3Z1sqUp9-11">
          <mxGeometry relative="1" as="geometry" />
        </mxCell>
        <mxCell id="eA5G1mRxvGn_3Z1sqUp9-18" style="edgeStyle=orthogonalEdgeStyle;rounded=0;orthogonalLoop=1;jettySize=auto;html=1;exitX=0.5;exitY=1;exitDx=0;exitDy=0;entryX=0;entryY=0.5;entryDx=0;entryDy=0;" edge="1" parent="1" source="eA5G1mRxvGn_3Z1sqUp9-9" target="eA5G1mRxvGn_3Z1sqUp9-17">
          <mxGeometry relative="1" as="geometry" />
        </mxCell>
        <mxCell id="eA5G1mRxvGn_3Z1sqUp9-9" value="Received message type" style="rhombus;whiteSpace=wrap;html=1;" vertex="1" parent="1">
          <mxGeometry x="390" y="240" width="100" height="100" as="geometry" />
        </mxCell>
        <mxCell id="eA5G1mRxvGn_3Z1sqUp9-34" style="edgeStyle=orthogonalEdgeStyle;rounded=0;orthogonalLoop=1;jettySize=auto;html=1;exitX=1;exitY=0.5;exitDx=0;exitDy=0;endArrow=none;endFill=0;" edge="1" parent="1" source="eA5G1mRxvGn_3Z1sqUp9-10">
          <mxGeometry relative="1" as="geometry">
            <mxPoint x="780" y="380" as="targetPoint" />
          </mxGeometry>
        </mxCell>
        <mxCell id="eA5G1mRxvGn_3Z1sqUp9-10" value="Add New Player" style="rounded=0;whiteSpace=wrap;html=1;" vertex="1" parent="1">
          <mxGeometry x="560" y="360" width="120" height="40" as="geometry" />
        </mxCell>
        <mxCell id="eA5G1mRxvGn_3Z1sqUp9-35" style="edgeStyle=orthogonalEdgeStyle;rounded=0;orthogonalLoop=1;jettySize=auto;html=1;exitX=1;exitY=0.5;exitDx=0;exitDy=0;endArrow=none;endFill=0;" edge="1" parent="1" source="eA5G1mRxvGn_3Z1sqUp9-11">
          <mxGeometry relative="1" as="geometry">
            <mxPoint x="780" y="449.7391304347826" as="targetPoint" />
          </mxGeometry>
        </mxCell>
        <mxCell id="eA5G1mRxvGn_3Z1sqUp9-11" value="Remove Player" style="rounded=0;whiteSpace=wrap;html=1;" vertex="1" parent="1">
          <mxGeometry x="560" y="430" width="120" height="40" as="geometry" />
        </mxCell>
        <mxCell id="eA5G1mRxvGn_3Z1sqUp9-13" value="case connect" style="text;html=1;strokeColor=none;fillColor=none;align=center;verticalAlign=middle;whiteSpace=wrap;rounded=0;" vertex="1" parent="1">
          <mxGeometry x="460" y="350" width="80" height="30" as="geometry" />
        </mxCell>
        <mxCell id="eA5G1mRxvGn_3Z1sqUp9-15" value="case disconnect" style="text;html=1;strokeColor=none;fillColor=none;align=center;verticalAlign=middle;whiteSpace=wrap;rounded=0;" vertex="1" parent="1">
          <mxGeometry x="455" y="420" width="90" height="30" as="geometry" />
        </mxCell>
        <mxCell id="eA5G1mRxvGn_3Z1sqUp9-24" style="edgeStyle=orthogonalEdgeStyle;rounded=0;orthogonalLoop=1;jettySize=auto;html=1;exitX=0.5;exitY=1;exitDx=0;exitDy=0;entryX=0.5;entryY=0;entryDx=0;entryDy=0;" edge="1" parent="1" source="eA5G1mRxvGn_3Z1sqUp9-17" target="eA5G1mRxvGn_3Z1sqUp9-23">
          <mxGeometry relative="1" as="geometry" />
        </mxCell>
        <mxCell id="eA5G1mRxvGn_3Z1sqUp9-17" value="Apply paddle move" style="rounded=0;whiteSpace=wrap;html=1;" vertex="1" parent="1">
          <mxGeometry x="560" y="500" width="120" height="40" as="geometry" />
        </mxCell>
        <mxCell id="eA5G1mRxvGn_3Z1sqUp9-19" value="case paddle_move" style="text;html=1;strokeColor=none;fillColor=none;align=center;verticalAlign=middle;whiteSpace=wrap;rounded=0;" vertex="1" parent="1">
          <mxGeometry x="447.5" y="490" width="105" height="30" as="geometry" />
        </mxCell>
        <mxCell id="eA5G1mRxvGn_3Z1sqUp9-27" style="edgeStyle=orthogonalEdgeStyle;rounded=0;orthogonalLoop=1;jettySize=auto;html=1;exitX=0.5;exitY=1;exitDx=0;exitDy=0;entryX=0.5;entryY=0;entryDx=0;entryDy=0;" edge="1" parent="1" source="eA5G1mRxvGn_3Z1sqUp9-23" target="eA5G1mRxvGn_3Z1sqUp9-26">
          <mxGeometry relative="1" as="geometry" />
        </mxCell>
        <mxCell id="eA5G1mRxvGn_3Z1sqUp9-23" value="players_ready++" style="rounded=0;whiteSpace=wrap;html=1;" vertex="1" parent="1">
          <mxGeometry x="560" y="570" width="120" height="40" as="geometry" />
        </mxCell>
        <mxCell id="eA5G1mRxvGn_3Z1sqUp9-29" style="edgeStyle=orthogonalEdgeStyle;rounded=0;orthogonalLoop=1;jettySize=auto;html=1;exitX=0.5;exitY=1;exitDx=0;exitDy=0;entryX=0.5;entryY=0;entryDx=0;entryDy=0;" edge="1" parent="1" source="eA5G1mRxvGn_3Z1sqUp9-26" target="eA5G1mRxvGn_3Z1sqUp9-28">
          <mxGeometry relative="1" as="geometry" />
        </mxCell>
        <mxCell id="eA5G1mRxvGn_3Z1sqUp9-33" style="edgeStyle=orthogonalEdgeStyle;rounded=0;orthogonalLoop=1;jettySize=auto;html=1;exitX=1;exitY=0.5;exitDx=0;exitDy=0;entryX=1;entryY=0.5;entryDx=0;entryDy=0;" edge="1" parent="1" source="eA5G1mRxvGn_3Z1sqUp9-26" target="eA5G1mRxvGn_3Z1sqUp9-9">
          <mxGeometry relative="1" as="geometry">
            <Array as="points">
              <mxPoint x="780" y="705" />
              <mxPoint x="780" y="290" />
            </Array>
          </mxGeometry>
        </mxCell>
        <mxCell id="eA5G1mRxvGn_3Z1sqUp9-26" value="players_ready&lt;br&gt;==&lt;br&gt;regis_players" style="rhombus;whiteSpace=wrap;html=1;" vertex="1" parent="1">
          <mxGeometry x="565" y="650" width="110" height="110" as="geometry" />
        </mxCell>
        <mxCell id="eA5G1mRxvGn_3Z1sqUp9-32" style="edgeStyle=orthogonalEdgeStyle;rounded=0;orthogonalLoop=1;jettySize=auto;html=1;exitX=0.5;exitY=1;exitDx=0;exitDy=0;entryX=0.5;entryY=0;entryDx=0;entryDy=0;" edge="1" parent="1" source="eA5G1mRxvGn_3Z1sqUp9-28" target="eA5G1mRxvGn_3Z1sqUp9-31">
          <mxGeometry relative="1" as="geometry" />
        </mxCell>
        <mxCell id="eA5G1mRxvGn_3Z1sqUp9-28" value="Move_ball" style="rounded=0;whiteSpace=wrap;html=1;" vertex="1" parent="1">
          <mxGeometry x="560" y="820" width="120" height="40" as="geometry" />
        </mxCell>
        <mxCell id="eA5G1mRxvGn_3Z1sqUp9-30" value="If condition is true" style="text;html=1;strokeColor=none;fillColor=none;align=center;verticalAlign=middle;whiteSpace=wrap;rounded=0;" vertex="1" parent="1">
          <mxGeometry x="540" y="770" width="80" height="30" as="geometry" />
        </mxCell>
        <mxCell id="eA5G1mRxvGn_3Z1sqUp9-31" value="Update board and send to all" style="rounded=0;whiteSpace=wrap;html=1;" vertex="1" parent="1">
          <mxGeometry x="560" y="890" width="120" height="40" as="geometry" />
        </mxCell>
      </root>
    </mxGraphModel>
  </diagram>
</mxfile>
